<?xml version="1.0" encoding="utf-8"?>
<!-- Generator: Adobe Illustrator 23.0.4, SVG Export Plug-In . SVG Version: 6.00 Build 0)  -->
<svg version="1.1" id="Layer_1" xmlns="http://www.w3.org/2000/svg" xmlns:xlink="http://www.w3.org/1999/xlink" x="0px" y="0px"
	 viewBox="0 0 3953.1 635.2" style="enable-background:new 0 0 3953.1 635.2;" xml:space="preserve">
<style type="text/css">
	.st0{fill:#3474df;}
	.st1{fill:#FFFFFF;}
	.st2{fill:#5D5D5D;}
</style>
<title>visdevelop</title>
<path class="st0" d="M662.2,635.2C274.8,635.2,0,315.4,0,315.4S278,4.6,666.7,0.1c387.4-4.5,666.7,324.4,666.7,324.4
	S1058.7,635.2,662.2,635.2z"/>
<ellipse class="st1" cx="673.8" cy="319.6" rx="480.3" ry="295.2"/>
<g id="_3o4SOr.tif">
	<path class="st2" d="M569,455.6c-2.5-1-4.2-1.6-5.8-2.3c-83.4-36.2-166.9-72.3-250.4-108.4c-3.9-1.7-5-3.7-4.9-7.7
		c0.2-17.6,0.2-35.3,0-53c0-3.1,0.9-4.7,3.8-6c84.4-36.5,168.7-73,253.1-109.6c1.2-0.5,2.4-0.8,4.2-1.4v20.4
		c0,15.8-0.2,31.7,0.1,47.5c0.1,4.5-1.5,6.3-5.5,7.8c-56.6,21.6-113.2,43.4-169.7,65.3c-1.9,0.7-3.7,1.5-6.4,2.6
		c2.4,1,4,1.8,5.7,2.4c56.9,22.4,113.7,44.8,170.6,67.1c3.8,1.5,5.3,3.2,5.2,7.5C568.8,410.1,569,432.4,569,455.6z"/>
	<path class="st2" d="M767.2,455.9c-0.1-1.9-0.2-3.3-0.2-4.8c0-21.2,0.1-42.3-0.1-63.5c0-3.6,1.2-5.2,4.5-6.5
		c57.1-22.3,114.2-44.7,171.2-67.1c1.7-0.7,3.4-1.4,6.4-2.7c-3-1.2-5-2.1-7-2.9c-56.4-21.8-112.8-43.6-169.2-65.4
		c-4.3-1.7-6-3.7-5.9-8.5c0.3-20.2,0.1-40.3,0.1-60.5V168c2.3,0.9,4,1.5,5.6,2.2c83.7,36.1,167.3,72.1,251,108.2
		c3.1,1.4,4.5,2.9,4.5,6.6c-0.2,17.8-0.2,35.7,0,53.5c0,3.1-0.9,4.7-3.8,5.9C940,381,855.9,417.6,771.7,454.3
		C770.4,454.9,769,455.3,767.2,455.9z"/>
</g>
<g id="bLj4tt.tif">
	<path class="st2" d="M732.5,123.1c-1.3,19.4-2.2,39.5-4.3,59.4c-2.2,20.4-5,40.7-8.5,60.9c-5.3,30.4-11.5,60.7-17.5,91
		c-1.2,6.1-3.2,12.1-5,18.1s-8.3,10-15.9,8.6c-13.8-2.6-27.4-6-41.1-9.1c-9.8-2.2-13.3-11-11.3-19.6c5.9-25.8,11.6-51.8,18.2-77.4
		c7-26.8,14.5-53.4,22.8-79.8c7.2-22.9,15.2-45.8,27.3-66.8c3-5.2,6.6-10.1,10.7-14.5c6.9-7.3,16.1-5.4,19.2,4.2
		C729.6,105.9,730.6,114.2,732.5,123.1z"/>
	<path class="st2" d="M560.8,523.5c5.8-5.9,11.9-11.2,17.1-17.4c9.1-10.9,14.3-23.8,16.6-37.8c1.8-10.8,4.9-20.7,13.4-28.4
		c12.8-11.7,29-10.8,42-1.8c17.6,12.2,20.5,35.1,10.7,54.1c-11.3,21.6-28.4,35.9-53,39.3c-15.1,2.3-30.5,0.1-44.3-6.5
		C562.3,524.6,561.5,524.1,560.8,523.5z"/>
	<path class="st2" d="M665,429.6l-27.7-6l-1.8-0.4c-12.9-3.1-13.3-3.5-12.3-16.6c0.9-11.3,1.9-22.7,2.7-34
		c0.7-10,3.2-12.3,12.9-10.3c14,2.9,28,6.1,41.9,9.4c5.7,1.4,7.2,4.5,5.2,10.1c-5,14.1-10,28.2-15.5,42.1
		C669.5,426.4,666.6,428,665,429.6z"/>
</g>
<path class="st0" d="M1569.8,434.2c-9.4,0-14.8-2.4-18.4-9.7l-35.3-72.4c-8.7-17.7-11.5-23.3-11.5-41.9v-78c0-7.4,4-10.6,13-10.6
	h57.3c9,0,14.1,3.2,14.1,10.6v81.5c0,4.1,1.1,7.7,2.9,12.1l16.9,41.3c1.4,3.8,2.9,5,6.8,5h4c4,0,5.4-1.2,6.8-5l16.9-41.6
	c1.8-4.4,2.9-8,2.9-12.1v-81.2c0-7.4,4-10.6,13-10.6h56.6c9.4,0,13,3.2,13,10.6v78c0,18.6-2.9,24.2-11.5,41.9l-35.3,72.4
	c-3.6,7.4-9,9.7-18.4,9.7L1569.8,434.2z"/>
<path class="st0" d="M1767.3,423.6v-35.1c0-7.4,4-10.6,13-10.6h35.7v-99.2h-35.7c-9,0-13-3.2-13-10.6v-35.7c0-7.4,4-10.6,13-10.6
	h153.5c9,0,13,3.2,13,10.6V268c0,7.4-4,10.6-13,10.6h-35v99.2h35c9,0,13,3.2,13,10.6v35.1c0,7.4-4,10.6-13,10.6h-153.6
	C1771.3,434.2,1767.3,431,1767.3,423.6z"/>
<path class="st0" d="M1997.6,434.2c-9,0-13-3.2-13-10.6V389c0-7.4,4-10.6,13-10.6h96.9c6.1,0,9.4-3.8,9.4-8.6c0-6.8-3.2-9.5-9.4-10
	l-54.1-6.2c-33.9-4.1-55.9-16-55.9-49v-31c0-33.7,27.8-52,74.6-52h100.9c9,0,13,3.2,13,10.6v35.1c0,7.4-4,10.6-13,10.6h-84
	c-6.1,0-9.7,3.5-9.7,8.9s3.6,8.9,9.7,9.5l53.7,5.9c33.9,4.1,56.2,16,56.2,49v31c0,33.7-28.1,52-74.6,52L1997.6,434.2z"/>
<path class="st2" d="M2238.3,434.2c-9,0-13-3.2-13-10.6V232.2c0-7.4,4-10.6,13-10.6h121.4c60.6,0,88.7,19.2,88.7,60.2V374
	c0,41-28.1,60.2-88.7,60.2L2238.3,434.2z M2307.2,378.4h42.9c11.5,0,16.9-4.4,16.9-14.5v-71.8c0-9.7-5.4-14.2-16.9-14.2h-42.9V378.4
	z"/>
<path class="st2" d="M2507.2,434.2c-9,0-13-3.2-13-10.6V232.2c0-7.4,4-10.6,13-10.6h167.2c9,0,13,3.2,13,10.6v34.5
	c0,7.4-4,10.6-13,10.6H2575v22.7h70.3c9,0,13,3.2,13,10.6v31.6c0,7.4-4,10.6-13,10.6H2575v25.4h99.5c9,0,13,3.2,13,10.6v34.5
	c0,7.4-4,10.6-13,10.6H2507.2z"/>
<path class="st2" d="M2789.7,434.2c-9.4,0-14.8-2.4-18.4-9.7l-35.4-72.4c-8.6-17.7-11.5-23.3-11.5-41.9v-78c0-7.4,4-10.6,13-10.6
	h57.3c9,0,14.1,3.2,14.1,10.6v81.5c0,4.1,1.1,7.7,2.9,12.1l16.9,41.3c1.4,3.8,2.9,5,6.9,5h4c4,0,5.4-1.2,6.8-5l16.9-41.6
	c1.8-4.4,2.9-8,2.9-12.1v-81.2c0-7.4,4-10.6,13-10.6h56.6c9.4,0,13,3.2,13,10.6v78c0,18.6-2.9,24.2-11.5,41.9l-35.3,72.4
	c-3.6,7.4-9,9.7-18.4,9.7L2789.7,434.2z"/>
<path class="st2" d="M3006,434.2c-9,0-13-3.2-13-10.6V232.2c0-7.4,4-10.6,13-10.6h167.2c9,0,13,3.2,13,10.6v34.5
	c0,7.4-4,10.6-13,10.6h-99.5v22.7h70.3c9,0,13,3.2,13,10.6v31.6c0,7.4-4,10.6-13,10.6h-70.3v25.4h99.5c9,0,13,3.2,13,10.6v34.5
	c0,7.4-4,10.6-13,10.6H3006z"/>
<path class="st2" d="M3241.7,434.2c-9,0-13-3.2-13-10.6V232.2c0-7.4,4-10.6,13-10.6h55.9c9,0,13,3.2,13,10.6v146.2h49.4v-47.8
	c0-7.4,4-10.6,13-10.6h52.3c9,0,13,3.2,13,10.6v93c0,7.4-4,10.6-13,10.6L3241.7,434.2z"/>
<path class="st2" d="M3587.3,438.6c-90.1,0-112.1-24.2-112.1-60.2V277.7c0-36,22-60.5,112.1-60.5s111.7,24.5,111.7,60.5v100.7
	C3699,414.4,3677.4,438.6,3587.3,438.6z M3587.3,381.6c26.3,0,30.3-5.9,30.3-13.9v-79.4c0-7.7-4-13.6-30.3-13.6
	c-25.9,0-30.3,5.9-30.3,13.6v79.4C3557,375.7,3561.4,381.6,3587.3,381.6L3587.3,381.6z"/>
<path class="st2" d="M3757.8,434.2c-9,0-13-3.2-13-10.6V232.2c0-7.4,4-10.6,13-10.6H3868c65.6,0,85.1,23.3,85.1,57.6V317
	c0,34.2-19.5,57.6-85.1,57.6h-41.4v49c0,7.4-4,10.6-13,10.6L3757.8,434.2z M3825.9,321.4h32.4c14.1,0,16.9-6.8,16.9-14.5v-15.7
	c0-7.7-2.9-14.5-16.9-14.5h-32.4V321.4z"/>
</svg>
